HIERARCHY
ROOT Hip
{
	OFFSET 0 1.131 0.0052
	CHANNELS 6 Xposition Yposition Zposition Xrotation Yrotation Zrotation
	JOINT Abdomen
	{
		OFFSET 0 -0.047353 -0.05
		CHANNELS 3 Xrotation Zrotation Yrotation
		JOINT Chest
		{
			OFFSET 0 0.132153 0.007439
			CHANNELS 3 Xrotation Zrotation Yrotation
			JOINT Neck
			{
				OFFSET 0 0.3078 0.006161
				CHANNELS 3 Xrotation Zrotation Yrotation
				JOINT Head_comp
				{
					OFFSET 0 0.0884 0.013
					CHANNELS 3 Xrotation Yrotation Zrotation
					End Site
					{
						OFFSET -0 0.156 0.0624
					}
				}
			}
			JOINT Left_Collar
			{
				OFFSET 0.02282 0.250342 0.017193
				CHANNELS 2 Yrotation Zrotation
				JOINT Left_Shoulder
				{
					OFFSET 0.15421 0 0
					CHANNELS 3 Xrotation Yrotation Zrotation
					JOINT Left_Forearm
					{
						OFFSET 0.265212 0 0
						CHANNELS 2 Yrotation Xrotation
						JOINT Left_Hand
						{
							OFFSET 0.27571 0 0
							CHANNELS 2 Zrotation Yrotation
							JOINT L1ProxPhalanx
							{
								OFFSET 0.014142 0.001733 0.014142
								CHANNELS 3 Yrotation Zrotation Xrotation
								JOINT L1MidPhalanx
								{
									OFFSET 0.04 0 0
									CHANNELS 1 Zrotation
									JOINT L1DistPhalanx
									{
										OFFSET 0.035 0 0
										CHANNELS 1 Zrotation
										End Site
										{
											OFFSET 0.029 -0 -0
										}
									}
								}
							}
							JOINT L2ProxPhalanx
							{
								OFFSET 0.0821037 0.001578 0.0219996
								CHANNELS 2 Yrotation Zrotation
								JOINT L2MidPhalanx
								{
									OFFSET 0.04 0 0
									CHANNELS 1 Zrotation
									JOINT L2DistPhalanx
									{
										OFFSET 0.028 0 0
										CHANNELS 1 Zrotation
										End Site
										{
											OFFSET 0.02 -0 -0
										}
									}
								}
							}
							JOINT L3ProxPhalanx
							{
								OFFSET 0.083 0 0
								CHANNELS 2 Yrotation Zrotation
								JOINT L3MidPhalanx
								{
									OFFSET 0.053 0 0
									CHANNELS 1 Zrotation
									JOINT L3DistPhalanx
									{
										OFFSET 0.03 0 0
										CHANNELS 1 Zrotation
										End Site
										{
											OFFSET 0.023 -0 -0
										}
									}
								}
							}
							JOINT L4ProxPhalanx
							{
								OFFSET 0.077274 -0.000761 -0.0207055
								CHANNELS 2 Yrotation Zrotation
								JOINT L4MidPhalanx
								{
									OFFSET 0.05 0 0
									CHANNELS 1 Zrotation
									JOINT L4DistPhalanx
									{
										OFFSET 0.03 0 0
										CHANNELS 1 Zrotation
										End Site
										{
											OFFSET 0.023 -0 -0
										}
									}
								}
							}
							JOINT L5ProxPhalanx
							{
								OFFSET 0.0675499 -0.001644 -0.039
								CHANNELS 2 Yrotation Zrotation
								JOINT L5MidPhalanx
								{
									OFFSET 0.04 0 0
									CHANNELS 1 Zrotation
									JOINT L5DistPhalanx
									{
										OFFSET 0.021 0 0
										CHANNELS 1 Zrotation
										End Site
										{
											OFFSET 0.022 -0 -0
										}
									}
								}
							}
						}
					}
				}
			}
			JOINT Right_Collar
			{
				OFFSET -0.02282 0.250342 0.017193
				CHANNELS 2 Yrotation Zrotation
				JOINT Right_Shoulder
				{
					OFFSET -0.15421 0 0
					CHANNELS 3 Xrotation Yrotation Zrotation
					JOINT Right_Forearm
					{
						OFFSET -0.265212 0 0
						CHANNELS 2 Yrotation Xrotation
						JOINT Right_Hand
						{
							OFFSET -0.27571 3e-006 0
							CHANNELS 2 Zrotation Yrotation
							JOINT R1ProxPhalanx
							{
								OFFSET -0.014142 0.001733 0.014142
								CHANNELS 3 Yrotation Zrotation Xrotation
								JOINT R1MidPhalanx
								{
									OFFSET -0.04 0 0
									CHANNELS 1 Zrotation
									JOINT R1DistPhalanx
									{
										OFFSET -0.035 0 0
										CHANNELS 1 Zrotation
										End Site
										{
											OFFSET -0.029 -0 -0
										}
									}
								}
							}
							JOINT R2ProxPhalanx
							{
								OFFSET -0.0821037 0.001578 0.0219996
								CHANNELS 2 Yrotation Zrotation
								JOINT R2MidPhalanx
								{
									OFFSET -0.04 0 0
									CHANNELS 1 Zrotation
									JOINT R2DistPhalanx
									{
										OFFSET -0.028 0 0
										CHANNELS 1 Zrotation
										End Site
										{
											OFFSET -0.02 -0 -0
										}
									}
								}
							}
							JOINT R3ProxPhalanx
							{
								OFFSET -0.083 0 0
								CHANNELS 2 Yrotation Zrotation
								JOINT R3MidPhalanx
								{
									OFFSET -0.053 0 0
									CHANNELS 1 Zrotation
									JOINT R3DistPhalanx
									{
										OFFSET -0.03 0 0
										CHANNELS 1 Zrotation
										End Site
										{
											OFFSET -0.023 -0 -0
										}
									}
								}
							}
							JOINT R4ProxPhalanx
							{
								OFFSET -0.077274 -0.000761 -0.0207055
								CHANNELS 2 Yrotation Zrotation
								JOINT R4MidPhalanx
								{
									OFFSET -0.05 0 0
									CHANNELS 1 Zrotation
									JOINT R4DistPhalanx
									{
										OFFSET -0.03 0 0
										CHANNELS 1 Zrotation
										End Site
										{
											OFFSET -0.023 -0 -0
										}
									}
								}
							}
							JOINT R5ProxPhalanx
							{
								OFFSET -0.0675499 -0.001644 -0.039
								CHANNELS 2 Yrotation Zrotation
								JOINT R5MidPhalanx
								{
									OFFSET -0.04 0 0
									CHANNELS 1 Zrotation
									JOINT R5DistPhalanx
									{
										OFFSET -0.021 0 0
										CHANNELS 1 Zrotation
										End Site
										{
											OFFSET -0.022 -0 -0
										}
									}
								}
							}
						}
					}
				}
			}
		}
	}
	JOINT Left_Thigh
	{
		OFFSET 0.1118 -0.1612 -0.0442
		CHANNELS 3 Xrotation Zrotation Yrotation
		JOINT Left_Shin
		{
			OFFSET 0 -0.477856 0
			CHANNELS 1 Xrotation
			JOINT Left_Foot
			{
				OFFSET 0 -0.431952 0
				CHANNELS 2 Xrotation Zrotation
				JOINT Left_Toe
				{
					OFFSET 0 -0.0442 0.119
					CHANNELS 1 Xrotation
					End Site
					{
						OFFSET -0 -0 0.07
					}
				}
			}
		}
	}
	JOINT Right_Thigh
	{
		OFFSET -0.1118 -0.1612 -0.0442
		CHANNELS 3 Xrotation Zrotation Yrotation
		JOINT Right_Shin
		{
			OFFSET 0 -0.477856 0
			CHANNELS 1 Xrotation
			JOINT Right_Foot
			{
				OFFSET 0 -0.431952 0
				CHANNELS 2 Xrotation Zrotation
				JOINT Right_Toe
				{
					OFFSET 0 -0.0442 0.119
					CHANNELS 1 Xrotation
					End Site
					{
						OFFSET -0 -0 0.07
					}
				}
			}
		}
	}
}
MOTION
Frames: 13
Frame Time: 0.009975
-0.101813 -0.0600544 0.0352893 6.6902e-013 -2.14948e-008 -5.10959e-006 0 -0 0 0 -0 0 0 -0 0 -0.711684 0.291792 -3.97937e-012 -11.0224 -15.6016 -23.5922 -25.883 -23.5858 -27.5067 18.6012 5.76533 -4.79239 -31.2077 -75.2999 103.432 -7.6982 -7.69752 -7.09797 -24.323 -10.1287 -14.5959 0.423301 0.549696 -4.23015 -5.45811 -0.912034 1.86366 -6.11902 -2.20658 8.23369 3.87216 -36.357 29.0501 8.26288 12.1228 -6.94046 8.71536 30.524 69.7748 14.2846 -4.75757 3.35356 32.2532 49.0691 89.4198 18.3061 19.485 9.6054 21.0019 20.903 17.781 -0.142666 12.5862 19.9607 18.1499 -4.64577 16.7199 21.1212 14.739 -8.23407 13.5459 33.2454 7.44847 -0.245101 -0.628918 0.00269049 0.0240216 0.221065 0.628929 0 -0.233696 -0.628919 0.0025653 8.49505e-007 0.233681 0.628929 0 
-0.101868 -0.0600529 0.0355242 2.87705e-012 -2.01805e-008 -5.10959e-006 0 -0 0 0 -0 0 0 -0 0 -0.711696 0.291947 -4.2704e-012 -11.0224 -15.6016 -23.5922 -25.883 -23.5858 -27.5067 18.6012 5.76533 -4.79239 -31.2077 -75.2999 103.432 -7.6982 -7.69752 -7.09797 -24.323 -10.1287 -14.5959 0.423301 0.549696 -4.23015 -5.45811 -0.912034 1.86366 -6.11902 -2.20658 8.23369 3.87216 -36.357 29.0501 8.09553 11.9523 -5.98776 8.21604 31.094 71.133 13.9953 -4.66121 3.28563 32.517 48.0921 88.6905 18.6742 19.9007 9.76835 20.8727 21.2798 17.867 -0.136048 13.0432 20.5477 18.6126 -4.83068 17.3687 21.6354 15.1576 -8.21537 14.1578 33.3338 8.49553 -0.230311 -0.625511 0.00251446 0.0240216 0.206276 0.625521 0 -0.218906 -0.625511 0.00238994 1.70755e-006 0.218891 0.625521 0 
-0.101924 -0.0600514 0.0357618 1.83087e-012 -1.88501e-008 -5.10959e-006 0 -0 0 0 -0 0 0 -0 0 -0.711708 0.292109 -4.56896e-012 -11.0224 -15.6016 -23.5922 -25.883 -23.5858 -27.5067 18.6012 5.76533 -4.79239 -31.2077 -75.2999 103.432 -7.6982 -7.69752 -7.09797 -24.323 -10.1287 -14.5959 0.423301 0.549696 -4.23015 -5.45811 -0.912034 1.86366 -6.11902 -2.20658 8.23369 3.87216 -36.357 29.0501 7.92561 11.7795 -5.01599 7.74488 31.6831 72.4507 13.7015 -4.56338 3.21667 32.7809 47.1151 87.9611 19.0423 20.3165 9.9313 20.7435 21.6566 17.9531 -0.129429 13.5001 21.1347 19.0754 -5.01559 18.0174 22.1496 15.5763 -8.19666 14.7696 33.4223 9.54259 -0.215348 -0.621945 0.00233771 0.0240216 0.191314 0.621954 0 -0.203943 -0.621945 0.0022139 1.70755e-006 0.203929 0.621954 0 
-0.101983 -0.0600499 0.0360019 2.29174e-012 -1.75048e-008 -5.10959e-006 0 -0 0 0 -0 0 0 -0 0 -0.711721 0.292278 -4.8757e-012 -11.0224 -15.6016 -23.5922 -25.883 -23.5858 -27.5067 18.6012 5.76533 -4.79239 -31.2077 -75.2999 103.432 -7.6982 -7.69752 -7.09797 -24.323 -10.1287 -14.5959 0.423301 0.549696 -4.23015 -5.45811 -0.912034 1.86366 -6.11902 -2.20658 8.23369 3.87216 -36.357 29.0501 7.75327 11.6046 -4.026 7.30282 32.2911 73.7269 13.4036 -4.46415 3.14673 33.0447 46.1381 87.2317 19.4103 20.7322 10.0942 20.6143 22.0333 18.0391 -0.122811 13.957 21.7217 19.5381 -5.2005 18.6662 22.6638 15.9949 -8.17796 15.3815 33.5108 10.5897 -0.200224 -0.618221 0.00216052 0.0240216 0.17619 0.618229 0 -0.188818 -0.618221 0.00203746 1.23157e-006 0.188806 0.618229 0 
-0.102045 -0.0600485 0.0362445 -9.58713e-013 -1.61455e-008 -5.1096e-006 0 -0 0 0 -0 0 0 -0 0 -0.711734 0.292455 -5.18745e-012 -11.0224 -15.6016 -23.5922 -25.883 -23.5858 -27.5067 18.6012 5.76533 -4.79239 -31.2077 -75.2999 103.432 -7.6982 -7.69752 -7.09797 -24.323 -10.1287 -14.5959 0.423301 0.549696 -4.23015 -5.45811 -0.912034 1.86366 -6.11902 -2.20658 8.23369 3.87216 -36.357 29.0501 7.57861 11.4276 -3.01872 6.89075 32.9176 74.9606 13.1016 -4.36358 3.07584 33.3085 45.1611 86.5023 19.7784 21.148 10.2572 20.4851 22.4101 18.1252 -0.116193 14.4139 22.3087 20.0008 -5.38541 19.315 23.178 16.4136 -8.15926 15.9934 33.5993 11.6367 -0.184948 -0.614339 0.00198317 0.0240216 0.160916 0.614347 0 -0.173543 -0.614339 0.00186088 8.32429e-007 0.173532 0.614347 0 
-0.102109 -0.0600471 0.0364892 -3.89669e-012 -1.47731e-008 -5.10959e-006 0 -0 0 0 -0 0 0 -0 0 -0.711747 0.292639 -5.50658e-012 -11.0224 -15.6016 -23.5922 -25.883 -23.5858 -27.5067 18.6012 5.76533 -4.79239 -31.2077 -75.2999 103.432 -7.6982 -7.69752 -7.09797 -24.323 -10.1287 -14.5959 0.423301 0.549696 -4.23015 -5.45811 -0.912034 1.86366 -6.11902 -2.20658 8.23369 3.87216 -36.357 29.0501 7.40176 11.2487 -1.99524 6.50958 33.5624 76.1512 12.7959 -4.26176 3.00406 33.5723 44.1841 85.7729 20.1465 21.5637 10.4201 20.3559 22.7869 18.2112 -0.109575 14.8708 22.8958 20.4635 -5.57032 19.9637 23.6921 16.8322 -8.14055 16.6052 33.6878 12.6838 -0.169533 -0.610299 0.00180594 0.0240216 0.145502 0.610307 0 -0.158127 -0.610299 0.00168446 1.70755e-006 0.158116 0.610307 0 
-0.102176 -0.0600457 0.036736 4.17082e-012 -1.33888e-008 -5.1096e-006 0 -0 0 0 -0 0 0 -0 0 -0.711761 0.29283 -5.83192e-012 -11.0224 -15.6016 -23.5922 -25.883 -23.5858 -27.5067 18.6012 5.76533 -4.79239 -31.2077 -75.2999 103.432 -7.6982 -7.69752 -7.09797 -24.323 -10.1287 -14.5959 0.423301 0.549696 -4.23015 -5.45811 -0.912034 1.86366 -6.11902 -2.20658 8.23369 3.87216 -36.357 29.0501 7.22284 11.0679 -0.956721 6.16004 34.2252 77.2973 12.4866 -4.15874 2.93145 33.8362 43.2071 85.0435 20.5146 21.9795 10.5831 20.2267 23.1636 18.2973 -0.102956 15.3278 23.4828 20.9263 -5.75523 20.6125 24.2063 17.2509 -8.12185 17.2171 33.7762 13.7308 -0.153989 -0.606102 0.0016291 0.0240216 0.129958 0.606109 0 -0.142584 -0.606102 0.00150846 2.41484e-006 0.142573 0.606109 0 
-0.102245 -0.0600444 0.0369847 9.00656e-013 -1.19934e-008 -5.10959e-006 0 -0 0 0 -0 0 0 -0 0 -0.711775 0.293029 -6.16074e-012 -11.0224 -15.6016 -23.5922 -25.883 -23.5858 -27.5067 18.6012 5.76533 -4.79239 -31.2077 -75.2999 103.432 -7.6982 -7.69752 -7.09797 -24.323 -10.1287 -14.5959 0.423301 0.549696 -4.23015 -5.45811 -0.912034 1.86366 -6.11902 -2.20658 8.23369 3.87216 -36.357 29.0501 7.04195 10.8855 0.0955166 5.84287 34.9056 78.3981 12.1739 -4.05459 2.85803 34.1 42.2301 84.3141 20.8827 22.3953 10.746 20.0975 23.5404 18.3833 -0.096338 15.7847 24.0698 21.389 -5.94014 21.2613 24.7205 17.6695 -8.10314 17.8289 33.8647 14.7779 -0.138327 -0.601747 0.00145291 0.0240216 0.114297 0.601754 0 -0.126922 -0.601747 0.00133314 1.47246e-006 0.126914 0.601754 0 
-0.102316 -0.0600432 0.0372351 -1.86236e-014 -1.05879e-008 -5.10959e-006 0 -0 0 0 -0 0 0 -0 0 -0.711789 0.293236 -6.49594e-012 -11.0224 -15.6016 -23.5922 -25.883 -23.5858 -27.5067 18.6012 5.76533 -4.79239 -31.2077 -75.2999 103.432 -7.6982 -7.69752 -7.09797 -24.323 -10.1287 -14.5959 0.423301 0.549696 -4.23015 -5.45811 -0.912034 1.86366 -6.11902 -2.20658 8.23369 3.87216 -36.357 29.0501 6.85922 10.7014 1.16005 5.55871 35.6032 79.4527 11.858 -3.94938 2.78387 34.3639 41.2531 83.5847 21.2507 22.811 10.909 19.9683 23.9172 18.4694 -0.0897198 16.2416 24.6568 21.8517 -6.12505 21.9101 25.2347 18.0881 -8.08444 18.4408 33.9532 15.825 -0.122558 -0.597235 0.00127766 0.0240216 0.0985297 0.597241 0 -0.111153 -0.597235 0.00115878 1.35211e-006 0.111146 0.597241 0 
-0.102391 -0.0600419 0.037487 -2.93379e-012 -9.17344e-009 -5.10959e-006 0 -0 0 0 -0 0 0 -0 0 -0.711803 0.293449 -6.83478e-012 -11.0224 -15.6016 -23.5922 -25.883 -23.5858 -27.5067 18.6012 5.76533 -4.79239 -31.2077 -75.2999 103.432 -7.6982 -7.69752 -7.09797 -24.323 -10.1287 -14.5959 0.423301 0.549696 -4.23015 -5.45811 -0.912034 1.86366 -6.11902 -2.20658 8.23369 3.87216 -36.357 29.0501 6.67477 10.5158 2.23532 5.30808 36.3175 80.4601 11.5391 -3.84317 2.70901 34.6277 40.2761 82.8553 21.6188 23.2268 11.0719 19.8391 24.2939 18.5554 -0.0831015 16.6985 25.2438 22.3144 -6.30996 22.5588 25.7489 18.5068 -8.06574 19.0527 34.0417 16.872 -0.106694 -0.592565 0.0011036 0.0240216 0.0826662 0.592572 0 -0.095289 -0.592566 0.000985657 2.2977e-006 0.0952816 0.592572 0 
-0.102467 -0.0600408 0.0377402 1.42183e-012 -7.75089e-009 -5.10959e-006 0 -0 0 0 -0 0 0 -0 0 -0.711817 0.29367 -7.17599e-012 -11.0224 -15.6016 -23.5922 -25.883 -23.5858 -27.5067 18.6012 5.76533 -4.79239 -31.2077 -75.2999 103.432 -7.6982 -7.69752 -7.09797 -24.323 -10.1287 -14.5959 0.423301 0.549696 -4.23015 -5.45811 -0.912034 1.86366 -6.11902 -2.20658 8.23369 3.87216 -36.357 29.0501 6.48869 10.3289 3.31964 5.09142 37.0479 81.4193 11.2174 -3.73604 2.63349 34.8915 39.2991 82.1259 21.9869 23.6425 11.2349 19.7099 24.6707 18.6415 -0.0764833 17.1554 25.8308 22.7771 -6.49487 23.2076 26.2631 18.9254 -8.04703 19.6645 34.1301 17.9191 -0.0907447 -0.58774 0.000931022 0.0240216 0.0667183 0.587746 0 -0.0793393 -0.58774 0.000814027 1.70755e-006 0.0793334 0.587746 0 
-0.102546 -0.0600396 0.0379946 -7.3071e-012 -6.32132e-009 -5.10958e-006 0 -0 0 0 -0 0 0 -0 0 -0.711832 0.293898 -7.52092e-012 -11.0224 -15.6016 -23.5922 -25.883 -23.5858 -27.5067 18.6012 5.76533 -4.79239 -31.2077 -75.2999 103.432 -7.6982 -7.69752 -7.09797 -24.323 -10.1287 -14.5959 0.423301 0.549696 -4.23015 -5.45811 -0.912034 1.86366 -6.11902 -2.20658 8.23369 3.87216 -36.357 29.0501 6.30112 10.1406 4.41119 4.90905 37.7941 82.3295 10.8931 -3.62803 2.55736 35.1554 38.3221 81.3965 22.355 24.0583 11.3978 19.5807 25.0475 18.7275 -0.069865 17.6123 26.4179 23.2399 -6.67978 23.8564 26.7773 19.3441 -8.02833 20.2764 34.2186 18.9661 -0.074723 -0.582758 0.000760181 0.0240216 0.0506975 0.582763 0 -0.0633176 -0.582758 0.00064418 1.70755e-006 0.0633126 0.582763 0 
-0.102628 -0.0600386 0.03825 -1.01141e-011 -4.88575e-009 -5.10958e-006 0 -0 0 0 -0 0 0 -0 0 -0.711847 0.294134 -7.8665e-012 -11.0224 -15.6016 -23.5922 -25.883 -23.5858 -27.5067 18.6012 5.76533 -4.79239 -31.2077 -75.2999 103.432 -7.6982 -7.69752 -7.09797 -24.323 -10.1287 -14.5959 0.423301 0.549696 -4.23015 -5.45811 -0.912034 1.86366 -6.11902 -2.20658 8.23369 3.87216 -36.357 29.0501 6.11215 9.9511 5.50804 4.76114 38.5553 83.1896 10.5665 -3.51923 2.48067 35.4192 37.3451 80.6671 22.723 24.474 11.5608 19.4515 25.4243 18.8136 -0.0632467 18.0693 27.0049 23.7026 -6.86469 24.5051 27.2915 19.7627 -8.00962 20.8882 34.3071 20.0132 -0.0586397 -0.57762 0.000591346 0.0240216 0.0346151 0.577625 0 -0.0472343 -0.57762 0.000476366 1.70755e-006 0.0472302 0.577625 0 
